<svg width="174" height="36" viewBox="0 0 174 36" fill="none" xmlns="http://www.w3.org/2000/svg">
<path d="M29.8843 8.34232L24.7057 5.38822L10.8106 13.4799L13.1629 15.7734L8.2577 18.6357L6.06935 16.4889V9.88354L19.2898 2.19537L17.5758 1.20449C16.591 0.635613 15.3874 0.635613 14.4029 1.20449L2.09408 8.3421C1.10932 8.9293 0.489319 9.97517 0.489319 11.131V25.4246C0.489319 26.5805 1.10932 27.6263 2.09408 28.1952L6.06935 30.5099V30.5071V20.929L25.9093 9.40631V15.7549L11.5217 24.1036V33.6814L14.4029 35.3512C15.3877 35.92 16.591 35.92 17.5758 35.3512L29.8846 28.1952C30.8693 27.6263 31.4893 26.5805 31.4893 25.4246V11.131C31.4891 9.9754 30.8691 8.92952 29.8843 8.34232Z" fill="url(#paint0_linear_2_813)"/>
<path d="M40.9267 12.4418C40.9267 12.0418 41.0787 11.6978 41.3827 11.4098C41.7027 11.1218 42.0867 10.9778 42.5347 10.9778H53.4067C53.4067 11.9378 53.2387 12.6418 52.9027 13.0898C52.5827 13.5218 52.0547 13.7378 51.3187 13.7378H44.1427V17.7938H50.5267C50.5267 18.7538 50.3587 19.4578 50.0227 19.9058C49.7027 20.3378 49.1747 20.5538 48.4387 20.5538H44.1427V25.7138C44.1427 26.5138 43.8867 27.0978 43.3747 27.4658C42.8627 27.8178 42.0467 27.9938 40.9267 27.9938V12.4418ZM56.0906 14.4338C55.5146 14.4338 55.0346 14.2658 54.6506 13.9298C54.2826 13.5778 54.0986 13.1298 54.0986 12.5858C54.0986 12.0578 54.2826 11.6258 54.6506 11.2898C55.0346 10.9378 55.5146 10.7618 56.0906 10.7618C56.6666 10.7618 57.1386 10.9378 57.5066 11.2898C57.8906 11.6258 58.0826 12.0578 58.0826 12.5858C58.0826 13.1298 57.8906 13.5778 57.5066 13.9298C57.1386 14.2658 56.6666 14.4338 56.0906 14.4338ZM54.5786 17.3858C54.5786 16.7298 54.8266 16.2658 55.3226 15.9938C55.8186 15.7058 56.5706 15.5618 57.5786 15.5618V26.1698C57.5786 26.8098 57.3306 27.2738 56.8346 27.5618C56.3386 27.8498 55.5866 27.9938 54.5786 27.9938V17.3858ZM60.9189 17.8658C60.9189 17.1298 61.1509 16.5618 61.6149 16.1618C62.0949 15.7618 62.8149 15.5618 63.7749 15.5618V17.0018C63.5829 17.2258 63.3909 17.4818 63.1989 17.7698L63.3429 17.8658C63.8229 17.1458 64.4389 16.5858 65.1909 16.1858C65.9429 15.7698 66.7749 15.5618 67.6869 15.5618C68.5029 15.5618 69.2229 15.7458 69.8469 16.1138C70.4709 16.4818 70.9509 16.9858 71.2869 17.6258C71.6389 18.2658 71.8149 18.9858 71.8149 19.7858V26.1698C71.8149 26.8098 71.5669 27.2738 71.0709 27.5618C70.5749 27.8498 69.8229 27.9938 68.8149 27.9938V20.2178C68.8149 19.6098 68.6309 19.1138 68.2629 18.7298C67.9109 18.3458 67.3909 18.1538 66.7029 18.1538C65.8869 18.1538 65.2149 18.4098 64.6869 18.9218C64.1589 19.4178 63.8949 20.0418 63.8949 20.7938V26.1698C63.8949 26.8098 63.6549 27.2738 63.1749 27.5618C62.6949 27.8498 61.9429 27.9938 60.9189 27.9938V17.8658ZM78.4732 27.9938C77.6572 27.9938 76.9052 27.8338 76.2172 27.5138C75.5452 27.1938 75.0012 26.7378 74.5852 26.1458C74.1852 25.5378 73.9852 24.8178 73.9852 23.9858C73.9852 23.1538 74.2012 22.4338 74.6332 21.8258C75.0652 21.2018 75.6492 20.7298 76.3852 20.4098C77.1372 20.0738 77.9612 19.9058 78.8572 19.9058C79.5932 19.9058 80.2492 20.0258 80.8252 20.2658C81.4172 20.4898 81.9612 20.8338 82.4572 21.2978L82.5772 21.1778C82.4332 21.0338 82.1852 20.8178 81.8332 20.5298V20.0498C81.8332 19.3938 81.6012 18.8738 81.1372 18.4898C80.6732 18.1058 80.0252 17.9138 79.1932 17.9138C77.7052 17.9138 76.6092 18.4578 75.9052 19.5458C75.5532 19.4338 75.2572 19.2578 75.0172 19.0178C74.7772 18.7618 74.6572 18.4898 74.6572 18.2018C74.6572 17.7218 74.8732 17.2818 75.3052 16.8818C75.7372 16.4818 76.3212 16.1618 77.0572 15.9218C77.7932 15.6818 78.5932 15.5618 79.4572 15.5618C81.1532 15.5618 82.4652 15.9618 83.3932 16.7618C84.3212 17.5458 84.7852 18.6178 84.7852 19.9778V25.9778C84.7852 26.6818 84.5612 27.1938 84.1132 27.5138C83.6652 27.8338 82.9612 27.9938 82.0012 27.9938V27.0098C82.2732 26.7378 82.4572 26.5378 82.5532 26.4098L82.4572 26.2898C81.9292 26.8498 81.3612 27.2738 80.7532 27.5618C80.1612 27.8498 79.4012 27.9938 78.4732 27.9938ZM79.2412 25.8098C80.0732 25.8098 80.7212 25.6498 81.1852 25.3298C81.6492 25.0098 81.8812 24.5538 81.8812 23.9618C81.8812 23.3858 81.6412 22.9298 81.1612 22.5938C80.6972 22.2578 80.0652 22.0898 79.2652 22.0898C78.5292 22.0898 77.9452 22.2578 77.5132 22.5938C77.0972 22.9138 76.8892 23.3698 76.8892 23.9618C76.8892 24.5698 77.0972 25.0338 77.5132 25.3538C77.9292 25.6578 78.5052 25.8098 79.2412 25.8098ZM87.4736 17.8658C87.4736 17.1298 87.7056 16.5618 88.1696 16.1618C88.6496 15.7618 89.3696 15.5618 90.3296 15.5618V17.0018C90.1376 17.2258 89.9456 17.4818 89.7536 17.7698L89.8976 17.8658C90.3776 17.1458 90.9936 16.5858 91.7456 16.1858C92.4976 15.7698 93.3296 15.5618 94.2416 15.5618C95.0576 15.5618 95.7776 15.7458 96.4016 16.1138C97.0256 16.4818 97.5056 16.9858 97.8416 17.6258C98.1936 18.2658 98.3696 18.9858 98.3696 19.7858V26.1698C98.3696 26.8098 98.1216 27.2738 97.6256 27.5618C97.1296 27.8498 96.3776 27.9938 95.3696 27.9938V20.2178C95.3696 19.6098 95.1856 19.1138 94.8176 18.7298C94.4656 18.3458 93.9456 18.1538 93.2576 18.1538C92.4416 18.1538 91.7696 18.4098 91.2416 18.9218C90.7136 19.4178 90.4496 20.0418 90.4496 20.7938V26.1698C90.4496 26.8098 90.2096 27.2738 89.7296 27.5618C89.2496 27.8498 88.4976 27.9938 87.4736 27.9938V17.8658ZM101.034 27.7778C100.698 27.7778 100.426 27.6578 100.218 27.4178C100.026 27.1618 99.9305 26.8738 99.9305 26.5538C99.9305 26.2658 100.01 26.0338 100.17 25.8578L107.49 17.3618L107.346 17.2418L106.65 18.0098H102.042C101.482 18.0098 101.05 17.8018 100.746 17.3858C100.458 16.9698 100.314 16.4338 100.314 15.7778H109.626C109.962 15.7778 110.234 15.8898 110.442 16.1138C110.65 16.3378 110.754 16.6018 110.754 16.9058C110.754 17.1938 110.658 17.4578 110.466 17.6978L103.17 26.1698L103.314 26.3138L104.01 25.5458H109.05C109.61 25.5458 110.034 25.7538 110.322 26.1698C110.626 26.5858 110.778 27.1218 110.778 27.7778H101.034ZM116.465 27.9938C115.649 27.9938 114.897 27.8338 114.209 27.5138C113.537 27.1938 112.993 26.7378 112.577 26.1458C112.177 25.5378 111.977 24.8178 111.977 23.9858C111.977 23.1538 112.193 22.4338 112.625 21.8258C113.057 21.2018 113.641 20.7298 114.377 20.4098C115.129 20.0738 115.953 19.9058 116.849 19.9058C117.585 19.9058 118.241 20.0258 118.817 20.2658C119.409 20.4898 119.953 20.8338 120.449 21.2978L120.569 21.1778C120.425 21.0338 120.177 20.8178 119.825 20.5298V20.0498C119.825 19.3938 119.593 18.8738 119.129 18.4898C118.665 18.1058 118.017 17.9138 117.185 17.9138C115.697 17.9138 114.601 18.4578 113.897 19.5458C113.545 19.4338 113.249 19.2578 113.009 19.0178C112.769 18.7618 112.649 18.4898 112.649 18.2018C112.649 17.7218 112.865 17.2818 113.297 16.8818C113.729 16.4818 114.313 16.1618 115.049 15.9218C115.785 15.6818 116.585 15.5618 117.449 15.5618C119.145 15.5618 120.457 15.9618 121.385 16.7618C122.313 17.5458 122.777 18.6178 122.777 19.9778V25.9778C122.777 26.6818 122.553 27.1938 122.105 27.5138C121.657 27.8338 120.953 27.9938 119.993 27.9938V27.0098C120.265 26.7378 120.449 26.5378 120.545 26.4098L120.449 26.2898C119.921 26.8498 119.353 27.2738 118.745 27.5618C118.153 27.8498 117.393 27.9938 116.465 27.9938ZM117.233 25.8098C118.065 25.8098 118.713 25.6498 119.177 25.3298C119.641 25.0098 119.873 24.5538 119.873 23.9618C119.873 23.3858 119.633 22.9298 119.153 22.5938C118.689 22.2578 118.057 22.0898 117.257 22.0898C116.521 22.0898 115.937 22.2578 115.505 22.5938C115.089 22.9138 114.881 23.3698 114.881 23.9618C114.881 24.5698 115.089 25.0338 115.505 25.3538C115.921 25.6578 116.497 25.8098 117.233 25.8098ZM132.09 27.9938C130.778 27.9938 129.578 27.7378 128.49 27.2258C127.402 26.6978 126.538 25.9858 125.898 25.0898C125.274 24.1938 124.962 23.2178 124.962 22.1618V16.5698C124.962 15.5138 125.274 14.5458 125.898 13.6658C126.538 12.7698 127.402 12.0658 128.49 11.5538C129.578 11.0258 130.778 10.7618 132.09 10.7618C133.402 10.7618 134.602 11.0258 135.69 11.5538C136.794 12.0658 137.658 12.7698 138.282 13.6658C138.922 14.5458 139.242 15.5138 139.242 16.5698V22.1618C139.242 23.2178 138.922 24.1938 138.282 25.0898C137.658 25.9858 136.794 26.6978 135.69 27.2258C134.602 27.7378 133.402 27.9938 132.09 27.9938ZM132.09 25.1858C133.29 25.1858 134.25 24.9058 134.97 24.3458C135.69 23.7698 136.05 23.0258 136.05 22.1138V16.6418C136.05 15.7138 135.69 14.9698 134.97 14.4098C134.25 13.8338 133.29 13.5458 132.09 13.5458C130.906 13.5458 129.954 13.8338 129.234 14.4098C128.514 14.9698 128.154 15.7138 128.154 16.6418V22.1138C128.154 23.0258 128.514 23.7698 129.234 24.3458C129.954 24.9058 130.906 25.1858 132.09 25.1858ZM145.902 32.7938C144.958 32.7938 144.118 32.6578 143.382 32.3858C142.646 32.1298 142.07 31.7778 141.654 31.3298C141.238 30.8818 141.03 30.3858 141.03 29.8418C141.03 29.2978 141.214 28.9138 141.582 28.6898C141.966 28.4658 142.502 28.3538 143.19 28.3538C143.254 29.0098 143.51 29.5138 143.958 29.8658C144.406 30.2338 145.054 30.4178 145.902 30.4178C146.846 30.4178 147.51 30.1858 147.894 29.7218C148.294 29.2578 148.494 28.6178 148.494 27.8018V26.9858C148.734 26.8098 148.91 26.6418 149.022 26.4818L148.926 26.3618C148.51 26.7778 147.95 27.1138 147.246 27.3698C146.558 27.6258 145.91 27.7538 145.302 27.7538C144.406 27.7538 143.606 27.5778 142.902 27.2258C142.198 26.8578 141.638 26.3458 141.222 25.6898C140.822 25.0338 140.622 24.2898 140.622 23.4578V19.8818C140.622 19.0818 140.83 18.3538 141.246 17.6978C141.678 17.0258 142.238 16.5058 142.926 16.1378C143.63 15.7538 144.382 15.5618 145.182 15.5618C146.062 15.5618 146.806 15.7378 147.414 16.0898C148.038 16.4418 148.606 16.9458 149.118 17.6018L149.214 17.5058C149.134 17.3618 148.982 17.1538 148.758 16.8818C148.758 16.0018 149.678 15.5618 151.518 15.5618V27.3698C151.518 28.4258 151.278 29.3618 150.798 30.1778C150.318 30.9938 149.646 31.6338 148.782 32.0978C147.934 32.5618 146.974 32.7938 145.902 32.7938ZM146.07 25.1858C146.774 25.1858 147.366 25.0098 147.846 24.6578C148.326 24.2898 148.566 23.8578 148.566 23.3618V19.9538C148.566 19.4418 148.326 19.0098 147.846 18.6578C147.382 18.3058 146.79 18.1298 146.07 18.1298C145.286 18.1298 144.678 18.2978 144.246 18.6338C143.83 18.9698 143.622 19.4498 143.622 20.0738V23.2418C143.622 23.8498 143.83 24.3298 144.246 24.6818C144.662 25.0178 145.27 25.1858 146.07 25.1858ZM159.191 32.7938C158.247 32.7938 157.407 32.6578 156.671 32.3858C155.935 32.1298 155.359 31.7778 154.943 31.3298C154.527 30.8818 154.319 30.3858 154.319 29.8418C154.319 29.2978 154.503 28.9138 154.871 28.6898C155.255 28.4658 155.791 28.3538 156.479 28.3538C156.543 29.0098 156.799 29.5138 157.247 29.8658C157.695 30.2338 158.343 30.4178 159.191 30.4178C160.135 30.4178 160.799 30.1858 161.183 29.7218C161.583 29.2578 161.783 28.6178 161.783 27.8018V26.9858C162.023 26.8098 162.199 26.6418 162.311 26.4818L162.215 26.3618C161.799 26.7778 161.239 27.1138 160.535 27.3698C159.847 27.6258 159.199 27.7538 158.591 27.7538C157.695 27.7538 156.895 27.5778 156.191 27.2258C155.487 26.8578 154.927 26.3458 154.511 25.6898C154.111 25.0338 153.911 24.2898 153.911 23.4578V19.8818C153.911 19.0818 154.119 18.3538 154.535 17.6978C154.967 17.0258 155.527 16.5058 156.215 16.1378C156.919 15.7538 157.671 15.5618 158.471 15.5618C159.351 15.5618 160.095 15.7378 160.703 16.0898C161.327 16.4418 161.895 16.9458 162.407 17.6018L162.503 17.5058C162.423 17.3618 162.271 17.1538 162.047 16.8818C162.047 16.0018 162.967 15.5618 164.807 15.5618V27.3698C164.807 28.4258 164.567 29.3618 164.087 30.1778C163.607 30.9938 162.935 31.6338 162.071 32.0978C161.223 32.5618 160.263 32.7938 159.191 32.7938ZM159.359 25.1858C160.063 25.1858 160.655 25.0098 161.135 24.6578C161.615 24.2898 161.855 23.8578 161.855 23.3618V19.9538C161.855 19.4418 161.615 19.0098 161.135 18.6578C160.671 18.3058 160.079 18.1298 159.359 18.1298C158.575 18.1298 157.967 18.2978 157.535 18.6338C157.119 18.9698 156.911 19.4498 156.911 20.0738V23.2418C156.911 23.8498 157.119 24.3298 157.535 24.6818C157.951 25.0178 158.559 25.1858 159.359 25.1858ZM169.528 14.4338C168.952 14.4338 168.472 14.2658 168.088 13.9298C167.72 13.5778 167.536 13.1298 167.536 12.5858C167.536 12.0578 167.72 11.6258 168.088 11.2898C168.472 10.9378 168.952 10.7618 169.528 10.7618C170.104 10.7618 170.576 10.9378 170.944 11.2898C171.328 11.6258 171.52 12.0578 171.52 12.5858C171.52 13.1298 171.328 13.5778 170.944 13.9298C170.576 14.2658 170.104 14.4338 169.528 14.4338ZM168.016 17.3858C168.016 16.7298 168.264 16.2658 168.76 15.9938C169.256 15.7058 170.008 15.5618 171.016 15.5618V26.1698C171.016 26.8098 170.768 27.2738 170.272 27.5618C169.776 27.8498 169.024 27.9938 168.016 27.9938V17.3858Z" fill="white"/>
<defs>
<linearGradient id="paint0_linear_2_813" x1="15.9892" y1="35.9817" x2="15.9892" y2="0.469235" gradientUnits="userSpaceOnUse">
<stop stop-color="#0D8142"/>
<stop offset="1" stop-color="#7DC042"/>
</linearGradient>
</defs>
</svg>
