<svg width="174" height="36" viewBox="0 0 174 36" fill="none" xmlns="http://www.w3.org/2000/svg">
<path d="M29.395 8.06449L24.2164 5.11039L10.3213 13.202L12.6735 15.4956L7.76839 18.3578L5.58003 16.2111V9.60571L18.8005 1.91754L17.0864 0.926656C16.1017 0.357781 14.8981 0.357781 13.9136 0.926656L1.60477 8.06427C0.619999 8.65147 0 9.69734 0 10.8532V25.1468C0 26.3026 0.619999 27.3485 1.60477 27.9174L5.58003 30.232V30.2293V20.6512L25.42 9.12848V15.477L11.0324 23.8257V33.4036L13.9136 35.0733C14.8983 35.6422 16.1017 35.6422 17.0864 35.0733L29.3952 27.9174C30.38 27.3485 31 26.3026 31 25.1468V10.8532C30.9998 9.69757 30.3798 8.65169 29.395 8.06449Z" fill="url(#paint0_linear_2_21)"/>
<path d="M40.4374 12.164C40.4374 11.764 40.5894 11.42 40.8934 11.132C41.2134 10.844 41.5974 10.7 42.0454 10.7H52.9174C52.9174 11.66 52.7494 12.364 52.4134 12.812C52.0934 13.244 51.5654 13.46 50.8294 13.46H43.6534V17.516H50.0374C50.0374 18.476 49.8694 19.18 49.5334 19.628C49.2134 20.06 48.6854 20.276 47.9494 20.276H43.6534V25.436C43.6534 26.236 43.3974 26.82 42.8854 27.188C42.3734 27.54 41.5574 27.716 40.4374 27.716V12.164ZM55.6012 14.156C55.0252 14.156 54.5452 13.988 54.1612 13.652C53.7932 13.3 53.6092 12.852 53.6092 12.308C53.6092 11.78 53.7932 11.348 54.1612 11.012C54.5452 10.66 55.0252 10.484 55.6012 10.484C56.1772 10.484 56.6492 10.66 57.0172 11.012C57.4012 11.348 57.5932 11.78 57.5932 12.308C57.5932 12.852 57.4012 13.3 57.0172 13.652C56.6492 13.988 56.1772 14.156 55.6012 14.156ZM54.0892 17.108C54.0892 16.452 54.3372 15.988 54.8332 15.716C55.3292 15.428 56.0812 15.284 57.0892 15.284V25.892C57.0892 26.532 56.8412 26.996 56.3452 27.284C55.8492 27.572 55.0972 27.716 54.0892 27.716V17.108ZM60.4295 17.588C60.4295 16.852 60.6615 16.284 61.1255 15.884C61.6055 15.484 62.3255 15.284 63.2855 15.284V16.724C63.0935 16.948 62.9016 17.204 62.7096 17.492L62.8536 17.588C63.3336 16.868 63.9496 16.308 64.7016 15.908C65.4536 15.492 66.2856 15.284 67.1976 15.284C68.0136 15.284 68.7336 15.468 69.3576 15.836C69.9816 16.204 70.4616 16.708 70.7976 17.348C71.1496 17.988 71.3256 18.708 71.3256 19.508V25.892C71.3256 26.532 71.0776 26.996 70.5816 27.284C70.0856 27.572 69.3336 27.716 68.3256 27.716V19.94C68.3256 19.332 68.1416 18.836 67.7736 18.452C67.4216 18.068 66.9016 17.876 66.2136 17.876C65.3976 17.876 64.7256 18.132 64.1975 18.644C63.6696 19.14 63.4056 19.764 63.4056 20.516V25.892C63.4056 26.532 63.1656 26.996 62.6856 27.284C62.2055 27.572 61.4535 27.716 60.4295 27.716V17.588ZM77.9839 27.716C77.1679 27.716 76.4159 27.556 75.7279 27.236C75.0559 26.916 74.5119 26.46 74.0959 25.868C73.6959 25.26 73.4959 24.54 73.4959 23.708C73.4959 22.876 73.7119 22.156 74.1439 21.548C74.5759 20.924 75.1599 20.452 75.8959 20.132C76.6479 19.796 77.4719 19.628 78.3679 19.628C79.1039 19.628 79.7599 19.748 80.3359 19.988C80.9279 20.212 81.4719 20.556 81.9679 21.02L82.0879 20.9C81.9439 20.756 81.6959 20.54 81.3439 20.252V19.772C81.3439 19.116 81.1119 18.596 80.6479 18.212C80.1839 17.828 79.5359 17.636 78.7039 17.636C77.2159 17.636 76.1199 18.18 75.4159 19.268C75.0639 19.156 74.7679 18.98 74.5279 18.74C74.2879 18.484 74.1679 18.212 74.1679 17.924C74.1679 17.444 74.3839 17.004 74.8159 16.604C75.2479 16.204 75.8319 15.884 76.5679 15.644C77.3039 15.404 78.1039 15.284 78.9679 15.284C80.6639 15.284 81.9759 15.684 82.9039 16.484C83.8319 17.268 84.2959 18.34 84.2959 19.7V25.7C84.2959 26.404 84.0719 26.916 83.6239 27.236C83.1759 27.556 82.4719 27.716 81.5119 27.716V26.732C81.7839 26.46 81.9679 26.26 82.0639 26.132L81.9679 26.012C81.4399 26.572 80.8719 26.996 80.2639 27.284C79.6719 27.572 78.9119 27.716 77.9839 27.716ZM78.7519 25.532C79.5839 25.532 80.2319 25.372 80.6959 25.052C81.1599 24.732 81.3919 24.276 81.3919 23.684C81.3919 23.108 81.1519 22.652 80.6719 22.316C80.2079 21.98 79.5759 21.812 78.7759 21.812C78.0399 21.812 77.4559 21.98 77.0239 22.316C76.6079 22.636 76.3999 23.092 76.3999 23.684C76.3999 24.292 76.6079 24.756 77.0239 25.076C77.4399 25.38 78.0159 25.532 78.7519 25.532ZM86.9842 17.588C86.9842 16.852 87.2162 16.284 87.6802 15.884C88.1602 15.484 88.8802 15.284 89.8402 15.284V16.724C89.6482 16.948 89.4562 17.204 89.2642 17.492L89.4082 17.588C89.8882 16.868 90.5042 16.308 91.2562 15.908C92.0082 15.492 92.8402 15.284 93.7522 15.284C94.5682 15.284 95.2882 15.468 95.9122 15.836C96.5362 16.204 97.0162 16.708 97.3522 17.348C97.7042 17.988 97.8802 18.708 97.8802 19.508V25.892C97.8802 26.532 97.6322 26.996 97.1362 27.284C96.6402 27.572 95.8882 27.716 94.8802 27.716V19.94C94.8802 19.332 94.6962 18.836 94.3282 18.452C93.9762 18.068 93.4562 17.876 92.7682 17.876C91.9522 17.876 91.2802 18.132 90.7522 18.644C90.2242 19.14 89.9602 19.764 89.9602 20.516V25.892C89.9602 26.532 89.7202 26.996 89.2402 27.284C88.7602 27.572 88.0082 27.716 86.9842 27.716V17.588ZM100.545 27.5C100.209 27.5 99.9372 27.38 99.7292 27.14C99.5372 26.884 99.4412 26.596 99.4412 26.276C99.4412 25.988 99.5212 25.756 99.6812 25.58L107.001 17.084L106.857 16.964L106.161 17.732H101.553C100.993 17.732 100.561 17.524 100.257 17.108C99.9692 16.692 99.8252 16.156 99.8252 15.5H109.137C109.473 15.5 109.745 15.612 109.953 15.836C110.161 16.06 110.265 16.324 110.265 16.628C110.265 16.916 110.169 17.18 109.977 17.42L102.681 25.892L102.825 26.036L103.521 25.268H108.561C109.121 25.268 109.545 25.476 109.833 25.892C110.137 26.308 110.289 26.844 110.289 27.5H100.545ZM115.976 27.716C115.16 27.716 114.408 27.556 113.72 27.236C113.048 26.916 112.504 26.46 112.088 25.868C111.688 25.26 111.488 24.54 111.488 23.708C111.488 22.876 111.704 22.156 112.136 21.548C112.568 20.924 113.152 20.452 113.888 20.132C114.64 19.796 115.464 19.628 116.36 19.628C117.096 19.628 117.752 19.748 118.328 19.988C118.92 20.212 119.464 20.556 119.96 21.02L120.08 20.9C119.936 20.756 119.688 20.54 119.336 20.252V19.772C119.336 19.116 119.104 18.596 118.64 18.212C118.176 17.828 117.528 17.636 116.696 17.636C115.208 17.636 114.112 18.18 113.408 19.268C113.056 19.156 112.76 18.98 112.52 18.74C112.28 18.484 112.16 18.212 112.16 17.924C112.16 17.444 112.376 17.004 112.808 16.604C113.24 16.204 113.824 15.884 114.56 15.644C115.296 15.404 116.096 15.284 116.96 15.284C118.656 15.284 119.968 15.684 120.896 16.484C121.824 17.268 122.288 18.34 122.288 19.7V25.7C122.288 26.404 122.064 26.916 121.616 27.236C121.168 27.556 120.464 27.716 119.504 27.716V26.732C119.776 26.46 119.96 26.26 120.056 26.132L119.96 26.012C119.432 26.572 118.864 26.996 118.256 27.284C117.664 27.572 116.904 27.716 115.976 27.716ZM116.744 25.532C117.576 25.532 118.224 25.372 118.688 25.052C119.152 24.732 119.384 24.276 119.384 23.684C119.384 23.108 119.144 22.652 118.664 22.316C118.2 21.98 117.568 21.812 116.768 21.812C116.032 21.812 115.448 21.98 115.016 22.316C114.6 22.636 114.392 23.092 114.392 23.684C114.392 24.292 114.6 24.756 115.016 25.076C115.432 25.38 116.008 25.532 116.744 25.532ZM131.6 27.716C130.288 27.716 129.088 27.46 128 26.948C126.912 26.42 126.048 25.708 125.408 24.812C124.784 23.916 124.472 22.94 124.472 21.884V16.292C124.472 15.236 124.784 14.268 125.408 13.388C126.048 12.492 126.912 11.788 128 11.276C129.088 10.748 130.288 10.484 131.6 10.484C132.912 10.484 134.112 10.748 135.2 11.276C136.304 11.788 137.168 12.492 137.792 13.388C138.432 14.268 138.752 15.236 138.752 16.292V21.884C138.752 22.94 138.432 23.916 137.792 24.812C137.168 25.708 136.304 26.42 135.2 26.948C134.112 27.46 132.912 27.716 131.6 27.716ZM131.6 24.908C132.8 24.908 133.76 24.628 134.48 24.068C135.2 23.492 135.56 22.748 135.56 21.836V16.364C135.56 15.436 135.2 14.692 134.48 14.132C133.76 13.556 132.8 13.268 131.6 13.268C130.416 13.268 129.464 13.556 128.744 14.132C128.024 14.692 127.664 15.436 127.664 16.364V21.836C127.664 22.748 128.024 23.492 128.744 24.068C129.464 24.628 130.416 24.908 131.6 24.908ZM145.413 32.516C144.469 32.516 143.629 32.38 142.893 32.108C142.157 31.852 141.581 31.5 141.165 31.052C140.749 30.604 140.541 30.108 140.541 29.564C140.541 29.02 140.725 28.636 141.093 28.412C141.477 28.188 142.013 28.076 142.701 28.076C142.765 28.732 143.021 29.236 143.469 29.588C143.917 29.956 144.565 30.14 145.413 30.14C146.357 30.14 147.021 29.908 147.405 29.444C147.805 28.98 148.005 28.34 148.005 27.524V26.708C148.245 26.532 148.421 26.364 148.533 26.204L148.437 26.084C148.021 26.5 147.461 26.836 146.757 27.092C146.069 27.348 145.421 27.476 144.813 27.476C143.917 27.476 143.117 27.3 142.413 26.948C141.709 26.58 141.149 26.068 140.733 25.412C140.333 24.756 140.133 24.012 140.133 23.18V19.604C140.133 18.804 140.341 18.076 140.757 17.42C141.189 16.748 141.749 16.228 142.437 15.86C143.141 15.476 143.893 15.284 144.693 15.284C145.573 15.284 146.317 15.46 146.925 15.812C147.549 16.164 148.117 16.668 148.629 17.324L148.725 17.228C148.645 17.084 148.493 16.876 148.269 16.604C148.269 15.724 149.189 15.284 151.029 15.284V27.092C151.029 28.148 150.789 29.084 150.309 29.9C149.829 30.716 149.157 31.356 148.293 31.82C147.445 32.284 146.485 32.516 145.413 32.516ZM145.581 24.908C146.285 24.908 146.877 24.732 147.357 24.38C147.837 24.012 148.077 23.58 148.077 23.084V19.676C148.077 19.164 147.837 18.732 147.357 18.38C146.893 18.028 146.301 17.852 145.581 17.852C144.797 17.852 144.189 18.02 143.757 18.356C143.341 18.692 143.133 19.172 143.133 19.796V22.964C143.133 23.572 143.341 24.052 143.757 24.404C144.173 24.74 144.781 24.908 145.581 24.908ZM158.702 32.516C157.758 32.516 156.918 32.38 156.182 32.108C155.446 31.852 154.87 31.5 154.454 31.052C154.038 30.604 153.83 30.108 153.83 29.564C153.83 29.02 154.014 28.636 154.382 28.412C154.766 28.188 155.302 28.076 155.99 28.076C156.054 28.732 156.31 29.236 156.758 29.588C157.206 29.956 157.854 30.14 158.702 30.14C159.646 30.14 160.31 29.908 160.694 29.444C161.094 28.98 161.294 28.34 161.294 27.524V26.708C161.534 26.532 161.71 26.364 161.822 26.204L161.726 26.084C161.31 26.5 160.75 26.836 160.046 27.092C159.358 27.348 158.71 27.476 158.102 27.476C157.206 27.476 156.406 27.3 155.702 26.948C154.998 26.58 154.438 26.068 154.022 25.412C153.622 24.756 153.422 24.012 153.422 23.18V19.604C153.422 18.804 153.63 18.076 154.046 17.42C154.478 16.748 155.038 16.228 155.726 15.86C156.43 15.476 157.182 15.284 157.982 15.284C158.862 15.284 159.606 15.46 160.214 15.812C160.838 16.164 161.406 16.668 161.918 17.324L162.014 17.228C161.934 17.084 161.782 16.876 161.558 16.604C161.558 15.724 162.478 15.284 164.318 15.284V27.092C164.318 28.148 164.078 29.084 163.598 29.9C163.118 30.716 162.446 31.356 161.582 31.82C160.734 32.284 159.774 32.516 158.702 32.516ZM158.87 24.908C159.574 24.908 160.166 24.732 160.646 24.38C161.126 24.012 161.366 23.58 161.366 23.084V19.676C161.366 19.164 161.126 18.732 160.646 18.38C160.182 18.028 159.59 17.852 158.87 17.852C158.086 17.852 157.478 18.02 157.046 18.356C156.63 18.692 156.422 19.172 156.422 19.796V22.964C156.422 23.572 156.63 24.052 157.046 24.404C157.462 24.74 158.07 24.908 158.87 24.908ZM169.039 14.156C168.463 14.156 167.983 13.988 167.599 13.652C167.231 13.3 167.047 12.852 167.047 12.308C167.047 11.78 167.231 11.348 167.599 11.012C167.983 10.66 168.463 10.484 169.039 10.484C169.615 10.484 170.087 10.66 170.455 11.012C170.839 11.348 171.031 11.78 171.031 12.308C171.031 12.852 170.839 13.3 170.455 13.652C170.087 13.988 169.615 14.156 169.039 14.156ZM167.527 17.108C167.527 16.452 167.775 15.988 168.271 15.716C168.767 15.428 169.519 15.284 170.527 15.284V25.892C170.527 26.532 170.279 26.996 169.783 27.284C169.287 27.572 168.535 27.716 167.527 27.716V17.108Z" fill="black"/>
<defs>
<linearGradient id="paint0_linear_2_21" x1="15.4999" y1="35.7038" x2="15.4999" y2="0.191403" gradientUnits="userSpaceOnUse">
<stop stop-color="#0D8142"/>
<stop offset="1" stop-color="#7DC042"/>
</linearGradient>
</defs>
</svg>
